<?xml version="1.0" standalone="no"?>
<!DOCTYPE svg PUBLIC "-//W3C//DTD SVG 20010904//EN"
 "http://www.w3.org/TR/2001/REC-SVG-20010904/DTD/svg10.dtd">
<svg version="1.0" xmlns="http://www.w3.org/2000/svg"
 width="200.000000pt" height="200.000000pt" viewBox="0 0 200.000000 200.000000"
 preserveAspectRatio="xMidYMid meet">
<metadata>
Created by potrace 1.16, written by Peter Selinger 2001-2019
</metadata>
<g transform="translate(0.000000,200.000000) scale(0.100000,-0.100000)"
fill="#000000" stroke="none">
<path d="M0 1000 l0 -1000 1000 0 1000 0 0 1000 0 1000 -1000 0 -1000 0 0
-1000z m820 692 c0 -7 -23 -75 -130 -371 -45 -127 -60 -179 -53 -190 8 -12 34
-17 104 -21 147 -9 225 -56 276 -167 42 -92 36 -135 -52 -383 -42 -118 -83
-230 -90 -247 l-14 -33 -120 0 c-67 0 -121 3 -121 7 0 4 43 129 96 277 71 198
94 274 87 286 -8 11 -35 16 -110 21 -122 6 -179 32 -236 105 -73 95 -78 177
-19 339 22 61 56 157 77 215 21 58 43 120 51 138 l13 32 120 0 c67 0 121 -3
121 -8z m419 -2 c177 -25 326 -172 350 -341 30 -219 -95 -409 -304 -464 -75
-19 -105 -19 -105 0 0 32 -42 123 -80 173 l-40 52 83 0 c95 0 135 16 179 70
61 77 40 192 -45 248 -39 26 -46 27 -204 30 -90 2 -163 7 -163 10 0 4 16 52
35 107 20 55 38 106 40 113 5 15 157 16 254 2z m353 -952 c8 -166 -54 -301
-175 -381 -84 -56 -128 -68 -269 -74 l-127 -6 40 113 c22 62 42 117 45 122 3
4 30 8 60 8 30 0 69 6 87 14 35 14 83 65 97 102 6 14 27 29 57 40 26 10 75 35
108 55 33 20 63 38 68 38 4 1 8 -14 9 -31z"/>
</g>
</svg>
